<svg xmlns="http://www.w3.org/2000/svg" xmlns:xlink="http://www.w3.org/1999/xlink" width="60.462" height="30" viewBox="0 0 60.462 30"><defs><linearGradient id="a" x1="0.738" y1="0.173" x2="-0.268" gradientUnits="objectBoundingBox"><stop offset="0" stop-color="#ec182e"/><stop offset="1" stop-color="#0085ca"/></linearGradient></defs><g transform="translate(-30.538 -46)"><text transform="translate(43 70)" fill="#ec182e" font-size="22" font-family="SegoeUI, Segoe UI"><tspan x="0" y="0">alent</tspan></text><path d="M2.7,0h0a0,0,0,0,1,0,0V12.784a0,0,0,0,1,0,0H0a0,0,0,0,1,0,0V2.7A2.7,2.7,0,0,1,2.7,0Z" transform="translate(34.365 58.073)" fill="#0085ca"/><path d="M501.175,336h-5.392A2.783,2.783,0,0,0,493,338.783h0v16.871h2.783V338.783h5.392Z" transform="translate(-454.809 -284.797)" fill="url(#a)"/><path d="M0,0H7.479a0,0,0,0,1,0,0V0A2.783,2.783,0,0,1,4.7,2.783H0a0,0,0,0,1,0,0V0A0,0,0,0,1,0,0Z" transform="translate(30.538 51.202)" fill="#0085ca"/><path d="M0,0H5.479a0,0,0,0,1,0,0V0A2.783,2.783,0,0,1,2.7,2.783H0a0,0,0,0,1,0,0V0A0,0,0,0,1,0,0Z" transform="translate(30.538 51.202)" fill="#1eafed" opacity="0.45"/><ellipse cx="1.739" cy="1.739" rx="1.739" ry="1.739" transform="translate(34.017 54.333)" fill="#0085ca"/></g></svg>